<svg width="40" height="40" viewBox="0 0 40 40" fill="none" xmlns="http://www.w3.org/2000/svg">
<rect width="40" height="40" rx="8" fill="#EF1B53"/>
<path fill-rule="evenodd" clip-rule="evenodd" d="M26.211 27.0776C24.8544 27.662 22.5896 28.4613 20.0756 28.4613C17.5346 28.4586 15.227 27.6601 13.8719 27.0773V17.0446L21.3611 24.8992C21.7545 25.2913 23.3192 23.722 22.926 23.3301C22.926 23.3301 14.6339 14.6027 14.2294 14.198C13.8249 13.7935 11.6666 13.8529 11.6666 14.2591V28.2732C12.4204 28.9208 16.1784 30.6624 20.0603 30.6667C23.9334 30.6667 27.6482 28.9264 28.4162 28.2745V14.3302C28.4162 13.775 26.211 13.775 26.211 14.3302V27.0776Z" fill="white"/>
<path fill-rule="evenodd" clip-rule="evenodd" d="M17.2832 11.537H22.7995C23.3993 11.537 23.3993 9.33334 22.7995 9.33334H17.2832C16.6834 9.33334 16.6834 11.537 17.2832 11.537" fill="white"/>
</svg>
