<svg width="138" height="24" viewBox="0 0 138 24" fill="none" xmlns="http://www.w3.org/2000/svg">
<path fill-rule="evenodd" clip-rule="evenodd" d="M136.536 13.0456V12.1485H132.834V8.41818H137.664V7.521H131.852V18.3462H138V17.4489H132.834V13.0456H136.536" fill="black"/>
<path fill-rule="evenodd" clip-rule="evenodd" d="M119.457 12.722V8.28321H120.944C121.932 8.28321 122.61 8.47135 123.017 8.85812C123.421 9.24197 123.625 9.7498 123.625 10.3674C123.625 11.1424 123.397 11.744 122.948 12.1554C122.503 12.5636 121.84 12.7705 120.977 12.7705H120.245C120.009 12.7705 119.786 12.759 119.581 12.736L119.457 12.722V12.722ZM120.944 13.6011H121.007L125.163 18.3462H126.357L122.154 13.512L122.372 13.4542C123.177 13.2408 123.779 12.8649 124.162 12.336C124.546 11.8055 124.741 11.1912 124.741 10.51C124.741 10.0211 124.646 9.58325 124.461 9.20818C124.275 8.83328 124.011 8.51478 123.677 8.26198C123.339 8.00591 122.928 7.80814 122.453 7.67418C121.973 7.539 121.432 7.47021 120.843 7.47021H118.475V18.3462H119.457V13.5386L119.609 13.5512C120.01 13.5844 120.459 13.6011 120.944 13.6011V13.6011Z" fill="black"/>
<path fill-rule="evenodd" clip-rule="evenodd" d="M111.302 14.8312C111.141 15.402 110.886 15.9081 110.545 16.3358C110.201 16.7669 109.754 17.1088 109.214 17.3525C108.677 17.5951 108.027 17.7181 107.281 17.7181C105.964 17.7181 104.943 17.3054 104.246 16.4911C103.554 15.684 103.203 14.4757 103.203 12.9001C103.203 12.2292 103.278 11.6056 103.426 11.0467C103.576 10.4808 103.817 9.98548 104.142 9.57395C104.468 9.15915 104.9 8.83378 105.424 8.60677C105.945 8.38131 106.58 8.26678 107.314 8.26678C108.037 8.26678 108.673 8.38406 109.204 8.61485C109.739 8.84805 110.184 9.17824 110.527 9.59734C110.868 10.0128 111.126 10.5165 111.294 11.094C111.46 11.6665 111.543 12.3082 111.543 13.001C111.543 13.6489 111.462 14.2645 111.302 14.8312V14.8312ZM111.281 9.08042C110.836 8.57619 110.28 8.17188 109.629 7.8785C108.977 7.58528 108.215 7.43652 107.364 7.43652C106.524 7.43652 105.768 7.58528 105.117 7.8785C104.464 8.17223 103.908 8.57636 103.465 9.08008C103.019 9.58568 102.674 10.1869 102.44 10.8674C102.205 11.55 102.086 12.2905 102.086 13.0681C102.086 13.8009 102.194 14.5084 102.407 15.1707C102.62 15.8288 102.942 16.4156 103.365 16.915C103.787 17.4129 104.326 17.8136 104.966 18.1063C105.606 18.3993 106.373 18.5481 107.246 18.5481C108.142 18.5481 108.935 18.3912 109.602 18.0817C110.271 17.7716 110.839 17.3532 111.289 16.8378C111.74 16.3215 112.082 15.7203 112.304 15.0515C112.528 14.3791 112.642 13.6723 112.642 12.9503C112.642 12.2179 112.526 11.5085 112.297 10.8423C112.068 10.1783 111.727 9.58568 111.281 9.08042V9.08042Z" fill="black"/>
<path fill-rule="evenodd" clip-rule="evenodd" d="M98.0368 7.521H89.9541V8.41818H93.5046V18.3462H94.4862V8.41818H98.0368V7.521" fill="black"/>
<path fill-rule="evenodd" clip-rule="evenodd" d="M81.3665 18.5485C81.8693 18.5485 82.3624 18.4933 82.8322 18.3839C83.2952 18.2766 83.7098 18.0996 84.0642 17.8578C84.4137 17.6193 84.699 17.3041 84.9121 16.9211C85.1241 16.5402 85.2314 16.0707 85.2314 15.5254C85.2314 15.0125 85.1401 14.5723 84.9604 14.2173C84.7796 13.8617 84.5353 13.5604 84.2329 13.3219C83.9251 13.0783 83.5701 12.8696 83.1791 12.7009C82.783 12.5306 82.3739 12.3763 81.9631 12.2427C81.4657 12.0735 81.0416 11.9244 80.6874 11.7952C80.3257 11.6635 80.0223 11.5203 79.7857 11.3696C79.5375 11.2126 79.3523 11.0294 79.234 10.8248C79.1157 10.6191 79.0555 10.3608 79.0555 10.0566C79.0555 9.43628 79.2839 8.9747 79.7341 8.68476C80.2983 8.32155 81.1113 8.1893 82.2232 8.31003C82.485 8.33875 82.754 8.38518 83.0224 8.4476C83.2924 8.51089 83.5554 8.59843 83.804 8.70832C83.9848 8.78828 84.1502 8.88253 84.2991 8.99018L84.5648 8.01595C84.2034 7.86169 83.7689 7.72841 83.2716 7.61886C82.2664 7.39805 81.1085 7.36537 80.1718 7.59272C79.7534 7.69488 79.3869 7.85481 79.0828 8.06789C78.7833 8.27804 78.5434 8.55268 78.3697 8.88493C78.196 9.21633 78.1079 9.62734 78.1079 10.107C78.1079 10.5335 78.1801 10.9042 78.322 11.2085C78.4644 11.5153 78.6682 11.7889 78.9279 12.0219C79.1908 12.2584 79.5155 12.4656 79.8935 12.6379C80.2775 12.8137 80.7142 12.9817 81.1912 13.1372C81.5302 13.2503 81.871 13.3716 82.215 13.5012C82.5662 13.6335 82.8926 13.7998 83.1861 13.9953C83.4857 14.1955 83.7339 14.4373 83.9229 14.7145C84.1174 15.001 84.2159 15.3532 84.2159 15.761C84.2159 16.0378 84.1612 16.3004 84.0527 16.5421C83.9409 16.7883 83.7619 17.0024 83.5186 17.1785C83.2809 17.3509 82.9703 17.4858 82.5951 17.5797C82.2275 17.6718 81.7806 17.7184 81.2657 17.7184C80.8659 17.7184 80.5059 17.6893 80.1965 17.6319C79.887 17.5749 79.5994 17.4993 79.3425 17.4073C79.0823 17.3149 78.8386 17.2005 78.6183 17.0671C78.4569 16.9692 78.2947 16.8666 78.133 16.7589L77.8641 17.6943C78.293 17.9235 78.7986 18.1222 79.3688 18.2848C79.9823 18.4597 80.6543 18.5485 81.3665 18.5485" fill="black"/>
<path fill-rule="evenodd" clip-rule="evenodd" d="M71.2871 7.24023L68.5445 15.5486L65.8018 7.24023H63.6979L60.9389 15.5497L58.1963 7.24023H55.7894L60.0335 18.6264H61.8279L64.742 10.4556L67.6719 18.6264H69.4664L73.6935 7.24023H71.2871" fill="black"/>
<path fill-rule="evenodd" clip-rule="evenodd" d="M47.0956 13.5783H50.4609V11.6152H47.0956V9.20331H51.5882V7.24023H44.8799V18.6264H51.9251V16.6634H47.0956V13.5783" fill="black"/>
<path fill-rule="evenodd" clip-rule="evenodd" d="M37.0391 15.0337L32.4197 7.30834L32.3786 7.24023H29.7861V18.6264H32.0018V10.8488L36.621 18.5583L36.6621 18.6264H39.2541V7.24023H37.0391V15.0337" fill="black"/>
<path fill-rule="evenodd" clip-rule="evenodd" d="M15.9712 19.485C14.4816 20.1266 11.9945 21.0044 9.23395 21.0044C6.44368 21.0014 3.90965 20.1246 2.42156 19.4846V8.46767L10.6455 17.0928C11.0775 17.5235 12.7957 15.8001 12.3639 15.3698C12.3639 15.3698 3.25838 5.78625 2.81418 5.34187C2.36997 4.89767 0 4.96284 0 5.40894V20.7978C0.827709 21.5089 4.95439 23.4215 9.2171 23.4261C13.4702 23.4261 17.5494 21.5151 18.3928 20.7992V5.48702C18.3928 4.87737 15.9712 4.87737 15.9712 5.48702V19.485Z" fill="#EF1B53"/>
<path fill-rule="evenodd" clip-rule="evenodd" d="M6.16752 2.41984H12.2249C12.8836 2.41984 12.8836 0 12.2249 0H6.16752C5.50886 0 5.50886 2.41984 6.16752 2.41984" fill="#EF1B53"/>
</svg>
